<svg width="664" height="123" viewBox="0 0 1328 246" fill="none" xmlns="http://www.w3.org/2000/svg">
<path fill-rule="evenodd" clip-rule="evenodd" d="M369.246 151.587C363.009 146.093 355.78 142.389 347.56 140.475V110.913H353.181C375.398 110.913 392.488 108.008 404.451 102.197C416.414 96.2728 422.395 83.9111 422.395 65.1123C422.395 50.7568 416.927 41.0156 405.989 35.8887C395.052 30.6478 380.183 28.0273 361.385 28.0273H347.56V0H362.068C394.995 0 418.806 6.15234 433.504 18.457C448.315 30.7617 455.72 46.9971 455.72 67.1631C455.72 84.9365 449.739 99.8617 437.776 111.938C425.927 124.015 409.008 130.965 387.019 132.788V133.13C398.64 141.789 406.331 148.397 410.091 152.954C413.85 157.397 418.066 163.436 422.737 171.069L461.36 233.789C466.031 241.309 465.006 245.068 458.284 245.068H438.802C433.447 245.068 429.459 242.847 426.839 238.403L391.292 177.393C386.165 168.62 378.816 160.018 369.246 151.587ZM969.773 237.386C999.296 235.14 1022.12 224.003 1038.25 203.974C1056.56 181.562 1065.71 153.144 1065.71 118.72C1065.71 84.2959 1056.56 55.8047 1038.25 33.2461C1022.12 13.347 999.296 2.28187 969.773 0.050614V29.0704C984.589 31.4278 996.867 38.5326 1006.61 50.3848C1018.77 65.1797 1024.84 87.958 1024.84 118.72C1024.84 149.481 1018.77 172.26 1006.61 187.055C996.867 198.907 984.589 206.012 969.773 208.369V237.386ZM0 24.3022C0 15.883 6.8251 9.05788 15.2443 9.05788H166.526C174.945 9.05788 181.77 15.883 181.77 24.3022C181.77 32.7214 174.945 39.5464 166.526 39.5464H15.2443C6.82509 39.5464 0 32.7214 0 24.3022ZM0 125.524C0 117.105 6.8251 110.28 15.2443 110.28H166.526C174.945 110.28 181.77 117.105 181.77 125.524C181.77 133.943 174.945 140.769 166.526 140.769H15.2443C6.82509 140.769 0 133.943 0 125.524ZM15.2443 211.502C6.8251 211.502 0 218.327 0 226.746C0 235.165 6.82509 241.991 15.2443 241.991H166.526C174.945 241.991 181.77 235.165 181.77 226.746C181.77 218.327 174.945 211.502 166.526 211.502H15.2443ZM1210.47 140.475C1218.69 142.389 1225.92 146.093 1232.15 151.587C1241.72 160.018 1249.07 168.62 1254.2 177.393L1289.75 238.403C1292.37 242.847 1296.36 245.068 1301.71 245.068H1321.19C1327.91 245.068 1328.94 241.309 1324.27 233.789L1285.65 171.069C1280.97 163.436 1276.76 157.397 1273 152.954C1269.24 148.397 1261.55 141.789 1249.93 133.13V132.788C1271.92 130.965 1288.84 124.015 1300.68 111.938C1312.65 99.8617 1318.63 84.9365 1318.63 67.1631C1318.63 46.9971 1311.22 30.7617 1296.41 18.457C1281.71 6.15234 1257.9 0 1224.98 0H1210.47V28.0273H1224.29C1243.09 28.0273 1257.96 30.6478 1268.9 35.8887C1279.84 41.0156 1285.3 50.7568 1285.3 65.1123C1285.3 83.9111 1279.32 96.2728 1267.36 102.197C1255.4 108.008 1238.31 110.913 1216.09 110.913H1210.47V140.475ZM693.835 151.587C687.598 146.093 680.37 142.389 672.149 140.475V110.913H677.771C699.987 110.913 717.077 108.008 729.04 102.197C741.003 96.2728 746.985 83.9111 746.985 65.1123C746.985 50.7568 741.516 41.0156 730.578 35.8887C719.641 30.6478 704.773 28.0273 685.974 28.0273H672.149V0H686.657C719.584 0 743.396 6.15234 758.093 18.457C772.904 30.7617 780.31 46.9971 780.31 67.1631C780.31 84.9365 774.328 99.8617 762.365 111.938C750.516 124.015 733.598 130.965 711.609 132.788V133.13C723.23 141.789 730.92 148.397 734.68 152.954C738.44 157.397 742.655 163.436 747.326 171.069L785.949 233.789C790.621 241.309 789.595 245.068 782.873 245.068H763.391C758.036 245.068 754.048 242.847 751.428 238.403L715.881 177.393C710.754 168.62 703.405 160.018 693.835 151.587Z" fill="#1E1E1E"/>
</svg>
